<svg xmlns="http://www.w3.org/2000/svg" id="logo__ritzau_scanpix" width="222.144" height="25.922" data-name="logo__ritzau scanpix" viewBox="0 0 222.144 25.922">
    <defs>
        <style>
            .cls-1{fill:#fff}
        </style>
    </defs>
    <path id="Path_17" d="M185.48 82.859h-4.88V62.85h4.906z" class="cls-1" data-name="Path 17" transform="translate(-143.872 -57.308)"/>
    <path id="Path_18" d="M219.181 75.45h-3.325c-2.169 0-3.468-.225-3.9-.877a7.551 7.551 0 0 1-.633-3.766l.016-11.734h-2.419v-3.6h2.423V52.02h4.811v3.455h3.028v3.607h-3.032l-.015 11.718a.95.95 0 0 0 .529.994 8.022 8.022 0 0 0 2.518.162z" class="cls-1" data-name="Path 18" transform="translate(-163.223 -49.908)"/>
    <path id="Path_19" d="M143.391 66.54h-3.829a2.576 2.576 0 0 0-2.632 2.8l-.019 13.517H132.1v-20h4.836v.633a4.612 4.612 0 0 1 2.955-.633h3.5z" class="cls-1" data-name="Path 19" transform="translate(-110.732 -57.314)"/>
    <path id="Path_20" d="M185.762 47.491a2.141 2.141 0 1 1-2.141-2.141 2.141 2.141 0 0 1 2.141 2.141" class="cls-1" data-name="Path 20" transform="translate(-144.473 -45.35)"/>
    <path id="Path_21" d="M265.672 79.415h-6.2l6.195-12.855v-3.629H254.1v3.629h6.2l-6.2 12.855v3.5h11.569z" class="cls-1" data-name="Path 21" transform="translate(-194.094 -57.362)"/>
    <path id="Path_22" d="M310.413 78.872v-4.83c-1.112.272-2.689 1.039-2.689 1.764v3.066c0 .421.143 1.137.884 1.162h.817a1.054 1.054 0 0 0 .988-1.162m4.722 4.117h-4.291v-.912c-.355.681-1.355 1.023-3 1.039h-.649q-3.972 0-3.968-3.1v-3.982a3.215 3.215 0 0 1 .95-2.315 14.46 14.46 0 0 1 3.743-2.47c1.124-.567 2.483-1.023 2.483-1.365v-2.8a1.178 1.178 0 0 0-.95-1.1h-.884c-.633 0-.95.792-.975 1.169-.029.282 0 1.378 0 1.66h-4.434v-1.9c0-2.67 1.8-4 6.017-4h.855c3.484.048 5.093 1.438 5.093 4.171z" class="cls-1" data-name="Path 22" transform="translate(-227.616 -57.349)"/>
    <path id="Path_23" d="M69.862 82.859H64.63l9.39-20.009h5.235z" class="cls-1" data-name="Path 23" transform="translate(-64.63 -57.308)"/>
    <path id="Path_24" d="M417.982 83.069h-5.232l9.39-20.009h5.232z" class="cls-1" data-name="Path 24" transform="translate(-302.498 -57.451)"/>
    <path id="Path_25" d="M365.776 82.985h-4.722v-.808a4.042 4.042 0 0 1-2.79.95h-.89a4.117 4.117 0 0 1-2.486-.76 2.334 2.334 0 0 1-1.048-1.983V62.9h4.5v15.981a1.091 1.091 0 0 0 .985 1.159h.82c.428 0 .9-.614.9-1.121V62.9h4.722z" class="cls-1" data-name="Path 25" transform="translate(-262.245 -57.342)"/>
    <path id="Path_26" d="M489.046 77.85a4.494 4.494 0 0 1-.412 1.9 5.14 5.14 0 0 1-2.724 2.641 4.959 4.959 0 0 1-1.932.38h-1.438a4.96 4.96 0 0 1-1.938-.386 5.14 5.14 0 0 1-2.711-2.622 4.494 4.494 0 0 1-.412-1.9v-.8l1.8-.295v1.093a2.924 2.924 0 0 0 .272 1.267 3.427 3.427 0 0 0 1.805 1.713 3.363 3.363 0 0 0 1.267.25h1.267a3.33 3.33 0 0 0 1.267-.25 3.455 3.455 0 0 0 1.8-1.713 2.923 2.923 0 0 0 .272-1.267v-.6a3.338 3.338 0 0 0-.405-1.72 3.9 3.9 0 0 0-1.077-1.169 7.129 7.129 0 0 0-1.517-.817q-.846-.333-1.742-.671t-1.739-.741a6.255 6.255 0 0 1-1.52-1.026 4.522 4.522 0 0 1-1.077-1.489 5.175 5.175 0 0 1-.405-2.166v-.377a4.859 4.859 0 0 1 .383-1.9 4.941 4.941 0 0 1 2.629-2.619 4.848 4.848 0 0 1 1.922-.386h1.3a4.8 4.8 0 0 1 1.9.386 4.956 4.956 0 0 1 2.622 2.619 4.8 4.8 0 0 1 .383 1.9v.515l-1.8.295v-.811a3.109 3.109 0 0 0-.253-1.267 3.208 3.208 0 0 0-1.7-1.7 3.11 3.11 0 0 0-1.251-.253h-1.118a3.11 3.11 0 0 0-1.251.253 3.37 3.37 0 0 0-1.017.7 3.215 3.215 0 0 0-.69 1.013 3.107 3.107 0 0 0-.25 1.267v.377a3.012 3.012 0 0 0 .409 1.612 3.737 3.737 0 0 0 1.074 1.124 7.657 7.657 0 0 0 1.517.811c.564.231 1.146.462 1.742.7s1.175.5 1.739.782a6.651 6.651 0 0 1 1.517 1.048 4.631 4.631 0 0 1 1.077 1.517 5.245 5.245 0 0 1 .405 2.182z" class="cls-1" data-name="Path 26" transform="translate(-346.728 -56.85)"/>
    <path id="Path_27" d="M536.185 79.784a4.922 4.922 0 0 1-2.622 2.622 4.792 4.792 0 0 1-1.9.386h-1.428a4.858 4.858 0 0 1-1.922-.386 4.912 4.912 0 0 1-2.625-2.622 4.778 4.778 0 0 1-.386-1.9V67.116a4.807 4.807 0 0 1 .386-1.9 4.921 4.921 0 0 1 2.625-2.619 4.858 4.858 0 0 1 1.922-.386h1.428a4.792 4.792 0 0 1 1.9.386 4.928 4.928 0 0 1 2.622 2.619 4.8 4.8 0 0 1 .383 1.9v.811l-1.8.279v-1.1a3.107 3.107 0 0 0-.25-1.267 3.23 3.23 0 0 0-1.71-1.682 3.11 3.11 0 0 0-1.251-.253h-1.267a3.11 3.11 0 0 0-1.267.253 3.316 3.316 0 0 0-1.02.684 3.167 3.167 0 0 0-.694 1.013 3.107 3.107 0 0 0-.25 1.267V77.89a3.106 3.106 0 0 0 .25 1.267 3.271 3.271 0 0 0 .694 1.02 3.234 3.234 0 0 0 1.02.694 3.167 3.167 0 0 0 1.267.25h1.267a3.129 3.129 0 0 0 2.264-.95 3.364 3.364 0 0 0 .687-1.02 3.106 3.106 0 0 0 .25-1.267v-1.093l1.8.295v.8a4.777 4.777 0 0 1-.373 1.898z" class="cls-1" data-name="Path 27" transform="translate(-379.403 -56.87)"/>
    <path id="Path_28" d="M576.733 78.382H570.4l-1.314 4.668H567.2L573.072 63h.95l5.9 20.047h-1.862zm-5.859-1.72h5.384l-2.641-9.229-.057-.741-.057.741z" class="cls-1" data-name="Path 28" transform="translate(-408.033 -57.41)"/>
    <path id="Path_29" d="M625.821 83.051l-8.361-14.594-.168-.868v15.462h-1.8V63h.95l8.358 14.61.181.852V63h1.805v20.047z" class="cls-1" data-name="Path 29" transform="translate(-441.029 -57.41)"/>
    <path id="Path_30" d="M676.488 72.343a4.972 4.972 0 0 1-1.055 1.565 4.9 4.9 0 0 1-1.584 1.058 4.829 4.829 0 0 1-1.919.383h-4.538v7.7h-1.8V63h6.334a4.833 4.833 0 0 1 1.919.386 4.887 4.887 0 0 1 2.629 2.629 4.836 4.836 0 0 1 .386 1.922v2.486a4.8 4.8 0 0 1-.372 1.92zm-1.419-4.4a3.1 3.1 0 0 0-.25-1.251 3.268 3.268 0 0 0-1.713-1.713 3.109 3.109 0 0 0-1.251-.253h-4.462v8.906h4.459a3.107 3.107 0 0 0 1.251-.25 3.272 3.272 0 0 0 1.02-.687 3.139 3.139 0 0 0 .694-1.013 3.1 3.1 0 0 0 .25-1.267z" class="cls-1" data-name="Path 30" transform="translate(-475.262 -57.41)"/>
    <path id="Path_31" d="M712.07 83.051V63h1.8v20.047z" class="cls-1" data-name="Path 31" transform="translate(-507.022 -57.41)"/>
    <path id="Path_32" d="M737.922 83.051l-4.122-8.333-4.117 8.333h-1.953l5.089-10.3L728.012 63h1.941l3.845 7.759L737.633 63h1.941l-4.811 9.748 5.1 10.3z" class="cls-1" data-name="Path 32" transform="translate(-517.722 -57.41)"/>
</svg>
